<mxfile host="app.diagrams.net" modified="2024-04-18T15:10:28.524Z" agent="Mozilla/5.0 (Macintosh; Intel Mac OS X 10_15_7) AppleWebKit/537.36 (KHTML, like Gecko) Chrome/123.0.0.0 Safari/537.36" version="24.2.5" etag="I3q-GMTI0RweQ12ajQ5z" type="github">
  <diagram name="Page-1" id="kPfDfUt9Pvr_R0EbJe4t">
    <mxGraphModel>
      <root>
        <mxCell id="0" />
        <mxCell id="1" parent="0" />
      </root>
    </mxGraphModel>
  </diagram>
</mxfile>
